<?xml version="1.0" encoding="UTF-8" standalone="no"?>
<!DOCTYPE svg PUBLIC "-//W3C//DTD SVG 1.1//EN"
 "http://www.w3.org/Graphics/SVG/1.1/DTD/svg11.dtd">
<!-- Generated by graphviz version 15.1.1 (20260805.0921)
 -->
<!-- Pages: 1 -->
<svg width="526pt" height="100pt"
 viewBox="0.00 0.00 526.00 100.00" xmlns="http://www.w3.org/2000/svg" xmlns:xlink="http://www.w3.org/1999/xlink">
<g id="graph0" class="graph" transform="scale(1 1) rotate(0) translate(4 96)">
<polygon fill="white" stroke="none" points="-4,4 -4,-96 521.5,-96 521.5,4 -4,4"/>
<!-- 2517715893008 -->
<g id="node1" class="node">
<title>2517715893008</title>
<polygon fill="none" stroke="black" points="207.75,-47.5 207.75,-83.5 310.5,-83.5 310.5,-47.5 207.75,-47.5"/>
<text xml:space="preserve" text-anchor="middle" x="220.62" y="-60.7" font-family="Times New Roman,serif" font-size="14.00">w</text>
<polyline fill="none" stroke="black" points="233.5,-48 233.5,-83.5"/>
<text xml:space="preserve" text-anchor="middle" x="244.88" y="-60.7" font-family="Times New Roman,serif" font-size="14.00">2</text>
<polyline fill="none" stroke="black" points="256.25,-48 256.25,-83.5"/>
<text xml:space="preserve" text-anchor="middle" x="283.38" y="-60.7" font-family="Times New Roman,serif" font-size="14.00">grad: 1</text>
</g>
<!-- 2517718162032+ -->
<g id="node6" class="node">
<title>2517718162032+</title>
<ellipse fill="none" stroke="black" cx="364.5" cy="-41.5" rx="18" ry="18"/>
<text xml:space="preserve" text-anchor="middle" x="364.5" y="-36.45" font-family="Times New Roman,serif" font-size="14.00">+</text>
</g>
<!-- 2517715893008&#45;&gt;2517718162032+ -->
<g id="edge4" class="edge">
<title>2517715893008&#45;&gt;2517718162032+</title>
<path fill="none" stroke="black" d="M310.9,-53.71C319.35,-51.75 327.82,-49.78 335.43,-48.02"/>
<polygon fill="black" stroke="black" points="336.12,-51.45 345.07,-45.78 334.53,-44.63 336.12,-51.45"/>
</g>
<!-- 2517715893008* -->
<g id="node2" class="node">
<title>2517715893008*</title>
<ellipse fill="none" stroke="black" cx="153.75" cy="-65.5" rx="18" ry="18"/>
<text xml:space="preserve" text-anchor="middle" x="153.75" y="-60.45" font-family="Times New Roman,serif" font-size="14.00">*</text>
</g>
<!-- 2517715893008*&#45;&gt;2517715893008 -->
<g id="edge1" class="edge">
<title>2517715893008*&#45;&gt;2517715893008</title>
<path fill="none" stroke="black" d="M171.82,-65.5C178.76,-65.5 187.23,-65.5 196.13,-65.5"/>
<polygon fill="black" stroke="black" points="196.03,-69 206.03,-65.5 196.03,-62 196.03,-69"/>
</g>
<!-- 2517718033344 -->
<g id="node3" class="node">
<title>2517718033344</title>
<polygon fill="none" stroke="black" points="0,-0.5 0,-36.5 99.75,-36.5 99.75,-0.5 0,-0.5"/>
<text xml:space="preserve" text-anchor="middle" x="11.38" y="-13.7" font-family="Times New Roman,serif" font-size="14.00">x</text>
<polyline fill="none" stroke="black" points="22.75,-1 22.75,-36.5"/>
<text xml:space="preserve" text-anchor="middle" x="34.12" y="-13.7" font-family="Times New Roman,serif" font-size="14.00">1</text>
<polyline fill="none" stroke="black" points="45.5,-1 45.5,-36.5"/>
<text xml:space="preserve" text-anchor="middle" x="72.62" y="-13.7" font-family="Times New Roman,serif" font-size="14.00">grad: 3</text>
</g>
<!-- 2517718033344&#45;&gt;2517715893008* -->
<g id="edge6" class="edge">
<title>2517718033344&#45;&gt;2517715893008*</title>
<path fill="none" stroke="black" d="M90.85,-36.94C102.89,-42.5 115.79,-48.45 126.68,-53.47"/>
<polygon fill="black" stroke="black" points="124.87,-56.49 135.42,-57.5 127.8,-50.14 124.87,-56.49"/>
</g>
<!-- 2517718033344&#45;&gt;2517718162032+ -->
<g id="edge5" class="edge">
<title>2517718033344&#45;&gt;2517718162032+</title>
<path fill="none" stroke="black" d="M100.07,-22.12C166.11,-26.98 281.31,-35.45 334.75,-39.39"/>
<polygon fill="black" stroke="black" points="334.33,-42.86 344.56,-40.11 334.84,-35.88 334.33,-42.86"/>
</g>
<!-- 2517715893328 -->
<g id="node4" class="node">
<title>2517715893328</title>
<polygon fill="none" stroke="black" points="0,-55.5 0,-91.5 99.75,-91.5 99.75,-55.5 0,-55.5"/>
<text xml:space="preserve" text-anchor="middle" x="11.38" y="-68.7" font-family="Times New Roman,serif" font-size="14.00">y</text>
<polyline fill="none" stroke="black" points="22.75,-56 22.75,-91.5"/>
<text xml:space="preserve" text-anchor="middle" x="34.12" y="-68.7" font-family="Times New Roman,serif" font-size="14.00">2</text>
<polyline fill="none" stroke="black" points="45.5,-56 45.5,-91.5"/>
<text xml:space="preserve" text-anchor="middle" x="72.62" y="-68.7" font-family="Times New Roman,serif" font-size="14.00">grad: 1</text>
</g>
<!-- 2517715893328&#45;&gt;2517715893008* -->
<g id="edge3" class="edge">
<title>2517715893328&#45;&gt;2517715893008*</title>
<path fill="none" stroke="black" d="M100.02,-69.64C108.34,-68.99 116.71,-68.33 124.27,-67.74"/>
<polygon fill="black" stroke="black" points="124.48,-71.23 134.18,-66.96 123.94,-64.25 124.48,-71.23"/>
</g>
<!-- 2517718162032 -->
<g id="node5" class="node">
<title>2517718162032</title>
<polygon fill="none" stroke="black" points="418.5,-23.5 418.5,-59.5 517.5,-59.5 517.5,-23.5 418.5,-23.5"/>
<text xml:space="preserve" text-anchor="middle" x="429.5" y="-36.7" font-family="Times New Roman,serif" font-size="14.00">z</text>
<polyline fill="none" stroke="black" points="440.5,-24 440.5,-59.5"/>
<text xml:space="preserve" text-anchor="middle" x="451.88" y="-36.7" font-family="Times New Roman,serif" font-size="14.00">3</text>
<polyline fill="none" stroke="black" points="463.25,-24 463.25,-59.5"/>
<text xml:space="preserve" text-anchor="middle" x="490.38" y="-36.7" font-family="Times New Roman,serif" font-size="14.00">grad: 1</text>
</g>
<!-- 2517718162032+&#45;&gt;2517718162032 -->
<g id="edge2" class="edge">
<title>2517718162032+&#45;&gt;2517718162032</title>
<path fill="none" stroke="black" d="M382.72,-41.5C389.64,-41.5 398.06,-41.5 406.88,-41.5"/>
<polygon fill="black" stroke="black" points="406.66,-45 416.66,-41.5 406.66,-38 406.66,-45"/>
</g>
</g>
</svg>
